HIERARCHY
ROOT Hips
{
 OFFSET 0.000000 0.000000 0.000000
 CHANNELS 6 Xposition Yposition Zposition Yrotation Xrotation Zrotation
 JOINT Chest
 {
  OFFSET 0.000000 13.173100 -0.061900
  CHANNELS 3 Yrotation Xrotation Zrotation
  JOINT Chest2
  {
   OFFSET 0.000000 8.040800 0.126200
   CHANNELS 3 Yrotation Xrotation Zrotation
   JOINT Chest3
   {
    OFFSET 0.000000 7.994400 0.000000
    CHANNELS 3 Yrotation Xrotation Zrotation
    JOINT Chest4
    {
     OFFSET 0.000000 7.986200 0.000000
     CHANNELS 3 Yrotation Xrotation Zrotation
     JOINT Neck
     {
      OFFSET 0.000000 12.259400 0.000000
      CHANNELS 3 Yrotation Xrotation Zrotation
      JOINT Head
      {
       OFFSET 0.000000 7.518700 0.267100
       CHANNELS 3 Yrotation Xrotation Zrotation
       End Site
       {
        OFFSET 0.000000 13.617700 0.141000
       }
      }
     }
     JOINT RightCollar
     {
      OFFSET -2.983800 8.314300 0.000000
      CHANNELS 3 Yrotation Xrotation Zrotation
      JOINT RightShoulder
      {
       OFFSET -16.133400 0.000000 0.000000
       CHANNELS 3 Yrotation Xrotation Zrotation
       JOINT RightElbow
       {
        OFFSET 0.000000 -29.822100 0.000000
        CHANNELS 3 Yrotation Xrotation Zrotation
        JOINT RightWrist
        {
         OFFSET 0.000000 -24.437700 0.010900
         CHANNELS 3 Yrotation Xrotation Zrotation
         End Site
         {
          OFFSET 0.000000 -18.312300 0.000000
         }
        }
       }
      }
     }
     JOINT LeftCollar
     {
      OFFSET 2.983800 8.314300 0.000000
      CHANNELS 3 Yrotation Xrotation Zrotation
      JOINT LeftShoulder
      {
       OFFSET 16.133400 0.000000 0.000000
       CHANNELS 3 Yrotation Xrotation Zrotation
       JOINT LeftElbow
       {
        OFFSET 0.000000 -29.822100 0.000000
        CHANNELS 3 Yrotation Xrotation Zrotation
        JOINT LeftWrist
        {
         OFFSET 0.000000 -24.437700 0.010900
         CHANNELS 3 Yrotation Xrotation Zrotation
         End Site
         {
          OFFSET 0.000000 -18.312300 0.000000
         }
        }
       }
      }
     }
    }
   }
  }
 }
 JOINT RightHip
 {
  OFFSET -11.206700 0.306200 0.030900
  CHANNELS 3 Yrotation Xrotation Zrotation
  JOINT RightKnee
  {
   OFFSET 0.000000 -57.334900 0.009400
   CHANNELS 3 Yrotation Xrotation Zrotation
   JOINT RightAnkle
   {
    OFFSET 0.000000 -43.376200 0.036600
    CHANNELS 3 Yrotation Xrotation Zrotation
    JOINT RightToe
    {
     OFFSET 0.000000 -10.035500 18.363100
     CHANNELS 3 Yrotation Xrotation Zrotation
     End Site
     {
      OFFSET 0.000000 -1.618500 7.239000
     }
    }
   }
  }
 }
 JOINT LeftHip
 {
  OFFSET 11.206700 0.306200 0.030900
  CHANNELS 3 Yrotation Xrotation Zrotation
  JOINT LeftKnee
  {
   OFFSET 0.000000 -57.334900 0.009400
   CHANNELS 3 Yrotation Xrotation Zrotation
   JOINT LeftAnkle
   {
    OFFSET 0.000000 -43.376200 0.036600
    CHANNELS 3 Yrotation Xrotation Zrotation
    JOINT LeftToe
    {
     OFFSET 0.000000 -10.035500 18.363100
     CHANNELS 3 Yrotation Xrotation Zrotation
     End Site
     {
      OFFSET 0.000000 -1.618500 7.239000
     }
    }
   }
  }
 }
}
MOTION
Frames: 5
Frame Time: 0.008333
0.000000 110.232800 0.000000 0.000000 -5.767877 0.000000 0.000000 11.653817 0.000000 0.000000 -5.885947 0.000000 0.000000 -0.000000 0.000000 0.000000 -0.000000 0.000000 0.000000 12.528835 0.000000 0.000000 0.711642 0.000000 0.000000 -0.000000 0.000000 0.000000 0.000000 -90.000000 0.000000 -2.309062 0.000000 0.000000 2.309062 0.000000 0.000000 -0.000000 0.000000 0.000000 -0.000000 90.000000 0.000000 -2.309062 0.000000 0.000000 2.309062 0.000000 0.000000 8.520406 0.000000 0.000000 1.905762 0.000000 -0.000000 -4.658285 0.000000 0.000000 -0.000000 0.000000 0.000000 8.520406 0.000000 0.000000 1.905762 0.000000 -0.000000 -4.658285 0.000000 0.000000 -0.000000 0.000000
-75.516509 69.726927 53.226901 -170.303279 -31.005777 -11.471086 -2.750384 14.391158 7.016997 -2.179905 8.659014 1.748655 -2.676249 10.844637 2.135955 -2.191577 8.653449 1.757012 1.685110 18.266591 -2.320990 2.314359 -6.421605 -2.867051 7.779173 0.827156 -1.972957 -3.699699 -24.725015 -0.919560 59.062737 -37.811066 -44.395940 9.184525 12.252327 -8.565605 -10.955038 -0.446773 -5.783875 -9.439226 -22.328225 4.640048 -62.861043 -29.481390 52.460000 1.656343 3.622215 -2.447049 -26.258449 -27.459614 4.677847 60.525287 86.646011 58.885893 2.430949 -26.478684 -4.918486 -1.452697 2.771958 -0.792233 -15.566112 -45.246576 8.900309 175.646910 73.335856 174.009426 -2.329526 -23.790288 0.659303 -0.636856 -1.728579 -0.354805
-75.514333 69.742119 53.230275 -170.316446 -31.012543 -11.475559 -2.741367 14.390775 7.026405 -2.187053 8.657847 1.750196 -2.695470 10.837661 2.141776 -2.181512 8.663801 1.749858 1.693680 18.264722 -2.316879 2.323523 -6.426425 -2.848038 7.789372 0.823178 -1.979237 -3.695879 -24.726359 -0.922258 59.059420 -37.804718 -44.385024 9.193961 12.254557 -8.568578 -10.958558 -0.467918 -5.788294 -9.434570 -22.332160 4.651192 -62.830385 -29.455719 52.428836 1.580606 3.709900 -2.529471 -26.259920 -27.452794 4.689875 60.516366 86.644173 58.873520 2.433397 -26.483887 -4.909405 -1.456177 2.779954 -0.803313 -15.579392 -45.231412 8.953994 175.761611 73.338946 174.085979 -2.351176 -23.812056 0.685398 -0.624976 -1.715053 -0.343947
-75.512428 69.759672 53.234097 -170.321419 -31.019153 -11.484922 -2.747919 14.387480 7.035422 -2.187120 8.663691 1.752445 -2.696470 10.841780 2.141648 -2.184571 8.665725 1.750294 1.699711 18.257298 -2.313842 2.330183 -6.437098 -2.841301 7.796298 0.813113 -1.985803 -3.699130 -24.766530 -0.920751 59.046052 -37.773416 -44.341025 9.198744 12.260878 -8.567795 -10.961980 -0.491036 -5.792206 -9.426571 -22.336645 4.662050 -62.766525 -29.395366 52.409399 1.515891 3.745518 -2.637518 -26.268805 -27.443667 4.696733 60.501765 86.638084 58.860458 2.452435 -26.488538 -4.920840 -1.463587 2.788825 -0.805398 -15.588586 -45.222024 8.978654 175.799405 73.339024 174.114024 -2.351105 -23.820397 0.688777 -0.623478 -1.711377 -0.339566
-75.514896 69.778113 53.238454 -170.327204 -31.026981 -11.475997 -2.748798 14.391303 7.029682 -2.188887 8.667104 1.753744 -2.699782 10.845998 2.141990 -2.187221 8.669018 1.750681 1.702611 18.242636 -2.310437 2.332409 -6.453354 -2.838152 7.780548 0.768643 -1.989721 -3.670401 -24.750810 -0.927510 59.033423 -37.745810 -44.324348 9.196767 12.256032 -8.570060 -10.965487 -0.517369 -5.791799 -9.422603 -22.335816 4.673096 -62.705135 -29.316164 52.394817 1.476795 3.761122 -2.735747 -26.269462 -27.448678 4.688491 60.578654 86.645427 58.935304 2.463995 -26.487233 -4.925653 -1.463372 2.786498 -0.806281 -15.579500 -45.215195 8.978466 175.845688 73.343841 174.143956 -2.351193 -23.825407 0.698857 -0.621213 -1.710414 -0.336073
